<svg width="60" height="56" viewBox="0 0 60 56" fill="none" xmlns="http://www.w3.org/2000/svg">
<path fill-rule="evenodd" clip-rule="evenodd" d="M59.5829 54.8333C59.3056 55.1112 58.9996 55.2499 58.6107 55.2499C58.2222 55.2499 57.9163 55.1112 57.639 54.8333C57.3611 54.5555 57.2498 54.2501 57.2498 53.861C57.2498 53.472 57.3885 53.1667 57.639 52.8887C57.9163 52.611 58.2222 52.4998 58.6107 52.4998C58.9996 52.4998 59.3056 52.639 59.5829 52.8887C59.8608 53.1667 60 53.472 60 53.861C60 54.222 59.8608 54.5555 59.5829 54.8333ZM57.7776 53.0274C57.5552 53.2498 57.4441 53.5275 57.4441 53.861C57.4441 54.1944 57.5552 54.4718 57.7776 54.6941C57.9999 54.9164 58.2778 55.0556 58.6107 55.0556C58.9441 55.0556 59.222 54.9445 59.4442 54.6941C59.6665 54.4718 59.7776 54.1944 59.7776 53.861C59.7776 53.5275 59.6665 53.2498 59.4442 53.0274C59.222 52.8052 58.9441 52.6946 58.6107 52.6946C58.3052 52.6665 58.0273 52.7777 57.7776 53.0274ZM58.6107 53.083V53.1111H58.0554V54.611H58.3333V54.0277H58.5275C58.6662 54.0277 58.7774 54.0553 58.8329 54.0834C58.9166 54.1389 58.9721 54.2501 58.9721 54.4168V54.611H59.222V54.2776C59.222 54.222 59.1945 54.1389 59.1388 54.0553C59.0833 53.9722 58.9996 53.9441 58.8885 53.9167C58.9721 53.8886 59.0552 53.861 59.1108 53.8329C59.1945 53.7499 59.25 53.6663 59.25 53.5275C59.25 53.3334 59.1945 53.1941 59.0277 53.1386C58.9441 53.1111 58.8054 53.083 58.6107 53.083ZM58.8885 53.3334C58.8329 53.3053 58.7218 53.2778 58.5551 53.2778H58.3333V53.8055H58.5831C58.6943 53.8055 58.7774 53.8055 58.8329 53.7774C58.9441 53.7499 58.9996 53.6663 58.9996 53.5556C58.9996 53.4446 58.9441 53.3889 58.8885 53.3334Z" fill="black"/>
<path fill-rule="evenodd" clip-rule="evenodd" d="M49.5553 0H10.6388C4.77773 0 0 4.63906 0 10.3053V44.8887C0 50.6387 4.61099 55.1666 10.5277 55.1666H49.4723C55.3885 55.1666 60 50.6387 60 44.8887V10.3053C60 4.52787 55.4165 0 49.5553 0ZM58.8054 44.8887C58.8054 49.9999 54.6941 53.9721 49.4443 53.9721H10.5277C5.27786 53.9996 1.1945 49.9999 1.1945 44.8887V10.3053C1.1945 5.19419 5.3334 1.16646 10.6388 1.16646H49.5829C54.7777 1.16646 58.8329 5.1667 58.8329 10.3053V44.8887H58.8054Z" fill="#F6F6F6"/>
<path fill-rule="evenodd" clip-rule="evenodd" d="M58.8054 44.8888C58.8054 49.9999 54.6941 53.9722 49.4443 53.9722H10.5278C5.27788 53.9996 1.19452 49.9999 1.19452 44.8888V10.3054C1.19452 5.19423 5.33341 1.1665 10.6388 1.1665H49.5829C54.7777 1.1665 58.8329 5.16674 58.8329 10.3054V44.8888H58.8054Z" fill="#020202"/>
<path fill-rule="evenodd" clip-rule="evenodd" d="M48.0554 33.9168H43.0829L42.2219 28.5002L39.0277 33.8611H33.9996L37.0555 37.0835L34.5554 42.4999L40.0555 39.2222L44.3612 42.5555L43.5556 37.0835L48.0554 33.9168Z" fill="#020202"/>
<path fill-rule="evenodd" clip-rule="evenodd" d="M51.5275 32.8333H43.9997L42.8056 25.3336L38.4165 32.7778H37.5834C37.0833 31.9166 36.889 30.6666 36.889 29.889C36.889 28.6114 36.9721 27.3612 36.9721 25.7221C36.9721 23.5558 36.3333 22.4168 34.6385 22.0002V21.9447C38.2223 21.4445 39.8609 19.0554 39.8609 15.722C39.8609 10.9725 36.6942 9.94458 32.5552 9.94458H21.4169L16.6942 32.2776H22.6108L24.3331 24.1391H28.2778C30.389 24.1391 31.2501 25.1669 31.2501 27.1389C31.2501 28.6389 31.0834 29.8334 31.0834 30.9724C31.0834 31.389 31.1665 32.3887 31.472 32.7778L35.7499 37.3056L32.0556 45.2224L39.9443 40.5278L45.833 45.0557L44.7496 37.5835L51.5275 32.8333ZM30.0557 19.9722H25.3335L26.4719 14.5836H30.8612C32.4166 14.5836 34.0553 15.0002 34.0553 16.8891C34.0553 19.3059 32.1944 19.9722 30.0557 19.9722ZM40.0556 39.2221L34.5555 42.4998L37.0833 37.1109L34.0277 33.8887H39.0553L42.222 28.5277L43.083 33.9442H48.083L43.5832 37.0834L44.3887 42.5835L40.0556 39.2221Z" fill="#F6F6F6"/>
</svg>
